<svg width="480" height="150" viewBox="0 0 480 150" fill="none" xmlns="http://www.w3.org/2000/svg">
<path d="M42.176 99C41.536 99 41.216 98.7653 41.216 98.296C41.216 97.912 41.4933 97.656 42.048 97.528L43.52 97.272C44.416 97.1013 44.992 96.8667 45.248 96.568C45.5467 96.2693 45.696 95.672 45.696 94.776V57.144C45.696 56.248 45.5467 55.6507 45.248 55.352C44.992 55.0533 44.416 54.8187 43.52 54.648L42.048 54.392C41.4933 54.264 41.216 54.008 41.216 53.624C41.216 53.1547 41.536 52.92 42.176 52.92H53.888C54.528 52.92 54.848 53.176 54.848 53.688C54.848 54.072 54.6133 54.3067 54.144 54.392L52.416 54.648C51.52 54.776 50.9227 55.0107 50.624 55.352C50.368 55.6933 50.24 56.312 50.24 57.208V73.272C50.24 73.8693 50.5387 74.168 51.136 74.168H63.808C64.4053 74.168 64.704 73.8693 64.704 73.272V57.208C64.704 56.312 64.5547 55.6933 64.256 55.352C64 55.0107 63.424 54.776 62.528 54.648L60.8 54.392C60.3307 54.3067 60.096 54.072 60.096 53.688C60.096 53.176 60.416 52.92 61.056 52.92H72.768C73.408 52.92 73.728 53.1547 73.728 53.624C73.728 54.008 73.4507 54.264 72.896 54.392L71.424 54.648C70.528 54.8187 69.9307 55.0533 69.632 55.352C69.376 55.6507 69.248 56.248 69.248 57.144V94.776C69.248 95.672 69.376 96.2693 69.632 96.568C69.9307 96.8667 70.528 97.1013 71.424 97.272L72.896 97.528C73.4507 97.656 73.728 97.912 73.728 98.296C73.728 98.7653 73.408 99 72.768 99H61.056C60.416 99 60.096 98.744 60.096 98.232C60.096 97.848 60.3307 97.6133 60.8 97.528L62.528 97.272C63.424 97.144 64 96.9093 64.256 96.568C64.5547 96.2267 64.704 95.608 64.704 94.712V76.984C64.704 76.3867 64.4053 76.088 63.808 76.088H51.136C50.5387 76.088 50.24 76.3867 50.24 76.984V94.712C50.24 95.608 50.368 96.2267 50.624 96.568C50.9227 96.9093 51.52 97.144 52.416 97.272L54.144 97.528C54.6133 97.6133 54.848 97.848 54.848 98.232C54.848 98.744 54.528 99 53.888 99H42.176ZM83.3315 99.576C82.2648 99.576 81.2408 99.3413 80.2595 98.872C79.2782 98.4027 78.4675 97.656 77.8275 96.632C77.1875 95.608 76.8675 94.2427 76.8675 92.536V70.264C76.8675 69.496 76.7395 68.9627 76.4835 68.664C76.2702 68.3653 75.8648 68.1947 75.2675 68.152L74.1795 68.024C73.4542 67.9387 73.0915 67.6613 73.0915 67.192C73.0915 66.6373 73.4968 66.36 74.3075 66.36H80.2595C80.8995 66.36 81.2195 66.68 81.2195 67.32V91.192C81.2195 93.1547 81.5822 94.5627 82.3075 95.416C83.0755 96.2267 84.1208 96.632 85.4435 96.632C86.7662 96.632 87.9395 96.2693 88.9635 95.544C89.9875 94.776 90.7982 93.7733 91.3955 92.536C92.0355 91.256 92.3555 89.8693 92.3555 88.376V70.264C92.3555 69.496 92.2275 68.9627 91.9715 68.664C91.7582 68.3653 91.3528 68.1947 90.7555 68.152L89.6675 68.024C88.9422 67.9387 88.5795 67.6613 88.5795 67.192C88.5795 66.6373 88.9848 66.36 89.7955 66.36H95.7475C96.3875 66.36 96.7075 66.68 96.7075 67.32V92.152C96.7075 92.92 96.8142 93.4533 97.0275 93.752C97.2835 94.008 97.7102 94.1787 98.3075 94.264L99.6515 94.456C100.206 94.4987 100.484 94.712 100.484 95.096C100.484 95.48 100.142 95.736 99.4595 95.864C98.1368 96.0347 97.0702 96.376 96.2595 96.888C95.4915 97.4 94.8088 98.0187 94.2115 98.744C93.8275 99.128 93.5075 99.32 93.2515 99.32C92.8675 99.32 92.6755 99.064 92.6755 98.552V95.608C92.6755 95.2667 92.5475 95.0747 92.2915 95.032C92.0782 94.9467 91.8435 95.032 91.5875 95.288C90.0088 96.8667 88.6008 97.976 87.3635 98.616C86.1688 99.256 84.8248 99.576 83.3315 99.576ZM101.57 99C100.93 99 100.61 98.7653 100.61 98.296C100.61 97.912 100.887 97.656 101.442 97.528L102.21 97.4C103.106 97.2293 103.682 96.9733 103.938 96.632C104.237 96.248 104.386 95.608 104.386 94.712V73.208C104.386 72.44 104.258 71.928 104.002 71.672C103.789 71.3733 103.383 71.1813 102.786 71.096L101.442 70.904C100.887 70.8613 100.61 70.6267 100.61 70.2C100.61 69.8587 100.951 69.624 101.634 69.496C102.957 69.2827 103.959 68.9413 104.642 68.472C105.367 68.0027 106.114 67.4267 106.882 66.744C107.266 66.36 107.586 66.168 107.842 66.168C108.226 66.168 108.418 66.424 108.418 66.936V69.816C108.418 70.1147 108.546 70.3493 108.802 70.52C109.058 70.648 109.335 70.5627 109.634 70.264C111.383 68.6 112.898 67.4693 114.178 66.872C115.501 66.2747 116.823 65.976 118.146 65.976C119.383 65.976 120.471 66.3173 121.41 67C122.391 67.64 123.117 68.6213 123.586 69.944C123.714 70.2853 123.927 70.4987 124.226 70.584C124.567 70.6267 124.887 70.4987 125.186 70.2C126.935 68.5787 128.45 67.4693 129.73 66.872C131.01 66.2747 132.311 65.976 133.634 65.976C135.426 65.976 136.877 66.6587 137.986 68.024C139.138 69.3467 139.714 71.3093 139.714 73.912V94.712C139.714 95.608 139.842 96.248 140.098 96.632C140.397 96.9733 140.994 97.208 141.89 97.336L143.298 97.528C143.767 97.6133 144.002 97.8693 144.002 98.296C144.002 98.7653 143.746 99 143.234 99H132.29C131.693 99 131.394 98.7653 131.394 98.296C131.394 97.8693 131.629 97.6133 132.098 97.528L132.994 97.4C133.975 97.272 134.615 97.016 134.914 96.632C135.213 96.248 135.362 95.608 135.362 94.712V74.616C135.362 72.5253 134.978 71.0533 134.21 70.2C133.485 69.3467 132.482 68.92 131.202 68.92C129.922 68.92 128.749 69.3253 127.682 70.136C126.658 70.904 125.826 71.9493 125.186 73.272C124.546 74.552 124.226 75.9813 124.226 77.56V94.712C124.226 95.608 124.375 96.248 124.674 96.632C124.973 96.9733 125.591 97.208 126.53 97.336L127.938 97.528C128.407 97.6133 128.642 97.8693 128.642 98.296C128.642 98.7653 128.386 99 127.874 99H116.994C116.397 99 116.098 98.7653 116.098 98.296C116.098 97.8693 116.333 97.6133 116.802 97.528L117.698 97.4C118.594 97.272 119.17 97.016 119.426 96.632C119.725 96.248 119.874 95.608 119.874 94.712V74.616C119.874 72.5253 119.49 71.0533 118.722 70.2C117.997 69.3467 116.994 68.92 115.714 68.92C114.434 68.92 113.261 69.3253 112.194 70.136C111.17 70.904 110.338 71.9493 109.698 73.272C109.058 74.552 108.738 75.9813 108.738 77.56V94.712C108.738 95.608 108.866 96.248 109.122 96.632C109.421 97.016 110.018 97.2507 110.914 97.336L112.642 97.528C113.111 97.6133 113.346 97.848 113.346 98.232C113.346 98.744 113.026 99 112.386 99H101.57ZM150.592 99.576C148.8 99.576 147.328 99.0213 146.176 97.912C145.024 96.76 144.448 95.2453 144.448 93.368C144.448 91.5333 145.024 89.8053 146.176 88.184C147.328 86.52 148.907 85.0267 150.912 83.704C152.918 82.3813 155.2 81.3147 157.76 80.504C158.315 80.3333 158.592 79.9707 158.592 79.416V73.592C158.592 71.544 158.272 70.0933 157.632 69.24C156.992 68.344 156.118 67.896 155.008 67.896C153.942 67.896 152.96 68.3867 152.064 69.368C151.211 70.3067 150.592 71.9067 150.208 74.168C149.995 75.5333 149.526 76.536 148.8 77.176C148.118 77.7733 147.414 78.072 146.688 78.072C145.494 78.072 144.896 77.4747 144.896 76.28C144.896 75.0427 145.238 73.8267 145.92 72.632C146.646 71.3947 147.584 70.2853 148.736 69.304C149.888 68.28 151.147 67.4693 152.512 66.872C153.878 66.2747 155.243 65.976 156.608 65.976C160.832 65.976 162.944 68.4293 162.944 73.336V92.92C162.944 94.712 163.392 95.608 164.288 95.608C164.843 95.608 165.355 95.2453 165.824 94.52C166.294 93.752 166.528 92.472 166.528 90.68C166.528 89.9973 166.806 89.656 167.361 89.656C167.873 89.656 168.128 90.0187 168.128 90.744C168.128 93.8587 167.574 96.12 166.465 97.528C165.398 98.8933 164.182 99.576 162.816 99.576C161.792 99.576 160.982 99.1707 160.384 98.36C159.787 97.5067 159.382 96.504 159.168 95.352C159.126 94.9253 158.934 94.712 158.592 94.712C158.294 94.6693 157.995 94.8613 157.696 95.288C156.672 96.696 155.627 97.7627 154.56 98.488C153.494 99.2133 152.171 99.576 150.592 99.576ZM152.32 96.632C153.43 96.632 154.454 96.248 155.392 95.48C156.331 94.6693 157.099 93.6027 157.696 92.28C158.294 90.9573 158.592 89.464 158.592 87.8V83.128C158.592 82.3173 158.144 82.0827 157.248 82.424C154.646 83.3627 152.619 84.664 151.168 86.328C149.76 87.9493 149.056 89.912 149.056 92.216C149.056 95.16 150.144 96.632 152.32 96.632ZM168.595 99C167.955 99 167.635 98.7653 167.635 98.296C167.635 97.912 167.912 97.656 168.467 97.528L169.235 97.4C170.131 97.2293 170.707 96.9733 170.963 96.632C171.262 96.248 171.411 95.608 171.411 94.712V73.208C171.411 72.44 171.283 71.928 171.027 71.672C170.814 71.3733 170.408 71.1813 169.811 71.096L168.467 70.904C167.912 70.8613 167.635 70.6267 167.635 70.2C167.635 69.8587 167.976 69.624 168.659 69.496C169.982 69.2827 170.984 68.9413 171.667 68.472C172.392 68.0027 173.139 67.4267 173.907 66.744C174.291 66.36 174.611 66.168 174.867 66.168C175.251 66.168 175.443 66.424 175.443 66.936V69.816C175.443 70.2 175.571 70.456 175.827 70.584C176.126 70.6693 176.446 70.5413 176.787 70.2C178.494 68.5787 179.987 67.4693 181.267 66.872C182.59 66.2747 183.976 65.976 185.427 65.976C187.347 65.976 188.883 66.6587 190.035 68.024C191.187 69.3467 191.763 71.3093 191.763 73.912V94.712C191.763 95.608 191.891 96.248 192.147 96.632C192.446 96.9733 193.043 97.208 193.939 97.336L195.347 97.528C195.816 97.6133 196.051 97.8693 196.051 98.296C196.051 98.7653 195.795 99 195.283 99H184.531C183.934 99 183.635 98.7653 183.635 98.296C183.635 97.8693 183.87 97.6133 184.339 97.528L185.235 97.4C186.131 97.272 186.707 97.016 186.963 96.632C187.262 96.248 187.411 95.608 187.411 94.712V74.616C187.411 72.5253 187.027 71.0533 186.259 70.2C185.491 69.3467 184.403 68.92 182.995 68.92C181.63 68.92 180.392 69.3253 179.283 70.136C178.216 70.904 177.363 71.9493 176.723 73.272C176.083 74.552 175.763 75.9813 175.763 77.56V94.712C175.763 95.608 175.891 96.248 176.147 96.632C176.446 97.016 177.043 97.2507 177.939 97.336L179.667 97.528C180.136 97.6133 180.371 97.848 180.371 98.232C180.371 98.744 180.051 99 179.411 99H168.595Z" fill="#FAF7F2"/>
<path d="M204.864 108.984C204.395 109.453 203.989 109.539 203.648 109.24C203.264 108.941 203.328 108.536 203.84 108.024C205.077 106.787 205.952 105.635 206.464 104.568C206.976 103.501 207.232 102.392 207.232 101.24C207.232 100.557 207.061 100.024 206.72 99.64C206.379 99.2987 205.995 98.9787 205.568 98.68C205.141 98.3813 204.757 98.04 204.416 97.656C204.075 97.2293 203.904 96.632 203.904 95.864C203.904 95.0107 204.181 94.3067 204.736 93.752C205.333 93.1547 206.08 92.856 206.976 92.856C208.043 92.856 208.875 93.24 209.472 94.008C210.112 94.776 210.432 95.8213 210.432 97.144C210.432 99.4053 209.899 101.581 208.832 103.672C207.808 105.805 206.485 107.576 204.864 108.984Z" fill="#B86F4A"/>
<path d="M47.264 122.192C46.7627 122.192 46.2987 122.107 45.872 121.936C45.456 121.755 45.12 121.499 44.864 121.168C44.6187 120.827 44.496 120.416 44.496 119.936C44.496 119.307 44.7147 118.8 45.152 118.416C45.5893 118.032 46.2133 117.733 47.024 117.52C47.8453 117.307 48.8213 117.147 49.952 117.04V116.896C49.952 116.331 49.8027 115.877 49.504 115.536C49.216 115.184 48.7573 115.008 48.128 115.008C47.6373 115.008 47.2373 115.12 46.928 115.344C46.6187 115.557 46.4213 115.856 46.336 116.24L45.04 115.856C45.2533 115.248 45.632 114.779 46.176 114.448C46.7307 114.107 47.3653 113.936 48.08 113.936C49.1787 113.936 49.9787 114.203 50.48 114.736C50.9813 115.259 51.232 116.064 51.232 117.152V119.008C51.232 119.445 51.2427 119.845 51.264 120.208C51.296 120.56 51.3333 120.885 51.376 121.184C51.4293 121.472 51.4773 121.744 51.52 122H50.288L49.968 120.912C49.744 121.307 49.408 121.621 48.96 121.856C48.5227 122.08 47.9573 122.192 47.264 122.192ZM47.568 121.12C47.9947 121.12 48.3893 121.045 48.752 120.896C49.1147 120.747 49.4027 120.501 49.616 120.16C49.84 119.808 49.952 119.333 49.952 118.736V118.112C48.6933 118.219 47.7173 118.405 47.024 118.672C46.3307 118.939 45.984 119.349 45.984 119.904C45.984 120.267 46.1227 120.56 46.4 120.784C46.688 121.008 47.0773 121.12 47.568 121.12ZM53.8583 122V114.064H54.8503L55.2023 115.264C55.3516 115.008 55.5383 114.784 55.7623 114.592C55.9969 114.389 56.2743 114.229 56.5943 114.112C56.9249 113.995 57.3143 113.936 57.7623 113.936C58.4023 113.936 58.9143 114.064 59.2983 114.32C59.6823 114.576 59.9596 114.933 60.1303 115.392C60.3009 115.84 60.3863 116.368 60.3863 116.976V122H59.0423V117.376C59.0423 116.971 59.0049 116.597 58.9303 116.256C58.8556 115.904 58.6903 115.621 58.4343 115.408C58.1889 115.195 57.8103 115.088 57.2983 115.088C56.6476 115.088 56.1356 115.312 55.7623 115.76C55.3889 116.197 55.2023 116.843 55.2023 117.696V122H53.8583ZM67.8355 122V111.312H75.0195V112.608H69.3395V115.856H73.5795V117.152H69.3395V120.704H75.0835V122H67.8355ZM79.8403 122.192C79.2429 122.192 78.6829 122.032 78.1603 121.712C77.6376 121.381 77.2163 120.912 76.8963 120.304C76.5869 119.685 76.4323 118.939 76.4323 118.064C76.4323 117.189 76.5869 116.448 76.8963 115.84C77.2163 115.221 77.6376 114.752 78.1603 114.432C78.6829 114.101 79.2429 113.936 79.8403 113.936C80.4696 113.936 80.9976 114.064 81.4243 114.32C81.8509 114.565 82.1816 114.896 82.4163 115.312V110.672H83.7603V119.008C83.7603 119.275 83.7709 119.669 83.7923 120.192C83.8243 120.704 83.9043 121.307 84.0323 122H82.7683L82.4163 120.8C82.2029 121.227 81.8776 121.568 81.4403 121.824C81.0029 122.069 80.4696 122.192 79.8403 122.192ZM80.1923 121.04C80.6509 121.04 81.0456 120.923 81.3763 120.688C81.7176 120.453 81.9789 120.117 82.1603 119.68C82.3523 119.232 82.4483 118.693 82.4483 118.064C82.4483 117.115 82.2403 116.384 81.8243 115.872C81.4189 115.349 80.8749 115.088 80.1923 115.088C79.5096 115.088 78.9603 115.349 78.5443 115.872C78.1389 116.384 77.9363 117.115 77.9363 118.064C77.9363 119.003 78.1389 119.733 78.5443 120.256C78.9603 120.779 79.5096 121.04 80.1923 121.04ZM88.8515 122.192C88.2328 122.192 87.7368 122.064 87.3635 121.808C86.9902 121.541 86.7182 121.179 86.5475 120.72C86.3875 120.251 86.3075 119.717 86.3075 119.12V114.064H87.6515V118.72C87.6515 119.125 87.6888 119.504 87.7635 119.856C87.8382 120.208 87.9928 120.491 88.2275 120.704C88.4728 120.907 88.8355 121.008 89.3155 121.008C89.9448 121.008 90.4355 120.789 90.7875 120.352C91.1502 119.904 91.3315 119.259 91.3315 118.416V114.064H92.6755V122H91.6675L91.3315 120.848C91.1075 121.232 90.8035 121.552 90.4195 121.808C90.0355 122.064 89.5128 122.192 88.8515 122.192ZM98.4001 122.192C97.6428 122.192 96.9868 122.016 96.4321 121.664C95.8775 121.301 95.4508 120.811 95.1521 120.192C94.8535 119.573 94.7041 118.864 94.7041 118.064C94.7041 117.275 94.8588 116.571 95.1681 115.952C95.4881 115.323 95.9361 114.832 96.5121 114.48C97.0881 114.117 97.7655 113.936 98.5441 113.936C99.0241 113.936 99.4561 114.021 99.8401 114.192C100.224 114.352 100.56 114.565 100.848 114.832C101.136 115.099 101.365 115.397 101.536 115.728L100.304 116.176C100.133 115.856 99.8828 115.6 99.5521 115.408C99.2215 115.216 98.8535 115.12 98.4481 115.12C98.0535 115.12 97.6801 115.227 97.3281 115.44C96.9761 115.643 96.6935 115.963 96.4801 116.4C96.2668 116.827 96.1601 117.376 96.1601 118.048C96.1601 118.709 96.2668 119.264 96.4801 119.712C96.7041 120.149 96.9868 120.475 97.3281 120.688C97.6801 120.901 98.0535 121.008 98.4481 121.008C98.8855 121.008 99.2641 120.912 99.5841 120.72C99.9148 120.517 100.165 120.267 100.336 119.968L101.568 120.416C101.376 120.757 101.12 121.061 100.8 121.328C100.48 121.595 100.117 121.808 99.7121 121.968C99.3068 122.117 98.8695 122.192 98.4001 122.192ZM105.458 122.192C104.956 122.192 104.492 122.107 104.066 121.936C103.65 121.755 103.314 121.499 103.058 121.168C102.812 120.827 102.69 120.416 102.69 119.936C102.69 119.307 102.908 118.8 103.346 118.416C103.783 118.032 104.407 117.733 105.218 117.52C106.039 117.307 107.015 117.147 108.146 117.04V116.896C108.146 116.331 107.996 115.877 107.698 115.536C107.41 115.184 106.951 115.008 106.322 115.008C105.831 115.008 105.431 115.12 105.122 115.344C104.812 115.557 104.615 115.856 104.53 116.24L103.234 115.856C103.447 115.248 103.826 114.779 104.37 114.448C104.924 114.107 105.559 113.936 106.274 113.936C107.372 113.936 108.172 114.203 108.674 114.736C109.175 115.259 109.426 116.064 109.426 117.152V119.008C109.426 119.445 109.436 119.845 109.458 120.208C109.49 120.56 109.527 120.885 109.57 121.184C109.623 121.472 109.671 121.744 109.714 122H108.482L108.162 120.912C107.938 121.307 107.602 121.621 107.154 121.856C106.716 122.08 106.151 122.192 105.458 122.192ZM105.762 121.12C106.188 121.12 106.583 121.045 106.946 120.896C107.308 120.747 107.596 120.501 107.81 120.16C108.034 119.808 108.146 119.333 108.146 118.736V118.112C106.887 118.219 105.911 118.405 105.218 118.672C104.524 118.939 104.178 119.349 104.178 119.904C104.178 120.267 104.316 120.56 104.594 120.784C104.882 121.008 105.271 121.12 105.762 121.12ZM114.311 122C113.81 122 113.42 121.952 113.143 121.856C112.876 121.749 112.69 121.552 112.583 121.264C112.487 120.976 112.439 120.56 112.439 120.016V115.136H111.095V114.064H112.439V112.08H113.783V114.064H115.431V115.136H113.783V119.792C113.783 120.24 113.831 120.523 113.927 120.64C114.034 120.757 114.258 120.816 114.599 120.816H115.431V122H114.311ZM117.891 122V115.136H116.787V114.064H119.235V122H117.891ZM118.435 112.56C118.169 112.56 117.934 112.464 117.731 112.272C117.539 112.069 117.443 111.835 117.443 111.568C117.443 111.291 117.539 111.056 117.731 110.864C117.934 110.672 118.169 110.576 118.435 110.576C118.713 110.576 118.947 110.672 119.139 110.864C119.331 111.056 119.427 111.291 119.427 111.568C119.427 111.835 119.331 112.069 119.139 112.272C118.947 112.464 118.713 112.56 118.435 112.56ZM125.103 122.192C124.644 122.192 124.191 122.112 123.743 121.952C123.295 121.792 122.884 121.547 122.511 121.216C122.148 120.875 121.855 120.443 121.631 119.92C121.407 119.397 121.295 118.779 121.295 118.064C121.295 117.349 121.407 116.731 121.631 116.208C121.855 115.685 122.148 115.259 122.511 114.928C122.884 114.587 123.295 114.336 123.743 114.176C124.191 114.016 124.644 113.936 125.103 113.936C125.561 113.936 126.015 114.016 126.463 114.176C126.911 114.336 127.316 114.587 127.679 114.928C128.052 115.259 128.351 115.685 128.575 116.208C128.799 116.731 128.911 117.349 128.911 118.064C128.911 118.779 128.799 119.397 128.575 119.92C128.351 120.443 128.052 120.875 127.679 121.216C127.316 121.547 126.911 121.792 126.463 121.952C126.015 122.112 125.561 122.192 125.103 122.192ZM125.103 121.008C125.508 121.008 125.887 120.907 126.239 120.704C126.601 120.491 126.895 120.171 127.119 119.744C127.353 119.307 127.471 118.747 127.471 118.064C127.471 117.381 127.353 116.827 127.119 116.4C126.895 115.963 126.601 115.643 126.239 115.44C125.887 115.227 125.508 115.12 125.103 115.12C124.708 115.12 124.329 115.227 123.967 115.44C123.604 115.643 123.305 115.963 123.071 116.4C122.847 116.827 122.735 117.381 122.735 118.064C122.735 118.747 122.847 119.307 123.071 119.744C123.305 120.171 123.604 120.491 123.967 120.704C124.329 120.907 124.708 121.008 125.103 121.008ZM130.936 122V114.064H131.928L132.28 115.264C132.43 115.008 132.616 114.784 132.84 114.592C133.075 114.389 133.352 114.229 133.672 114.112C134.003 113.995 134.392 113.936 134.84 113.936C135.48 113.936 135.992 114.064 136.376 114.32C136.76 114.576 137.038 114.933 137.208 115.392C137.379 115.84 137.464 116.368 137.464 116.976V122H136.12V117.376C136.12 116.971 136.083 116.597 136.008 116.256C135.934 115.904 135.768 115.621 135.512 115.408C135.267 115.195 134.888 115.088 134.376 115.088C133.726 115.088 133.214 115.312 132.84 115.76C132.467 116.197 132.28 116.843 132.28 117.696V122H130.936ZM149.218 122.192C148.194 122.192 147.319 121.957 146.594 121.488C145.879 121.008 145.33 120.352 144.946 119.52C144.562 118.688 144.37 117.728 144.37 116.64C144.37 115.531 144.572 114.565 144.978 113.744C145.394 112.912 145.975 112.267 146.722 111.808C147.468 111.349 148.343 111.12 149.346 111.12C150.242 111.12 151.047 111.328 151.762 111.744C152.487 112.16 153.031 112.757 153.394 113.536L152.082 114.016C151.847 113.536 151.49 113.147 151.01 112.848C150.54 112.539 149.959 112.384 149.266 112.384C148.636 112.384 148.066 112.544 147.554 112.864C147.052 113.184 146.652 113.664 146.354 114.304C146.055 114.933 145.906 115.712 145.906 116.64C145.906 117.536 146.05 118.304 146.338 118.944C146.626 119.584 147.026 120.075 147.538 120.416C148.06 120.757 148.652 120.928 149.314 120.928C149.783 120.928 150.199 120.859 150.562 120.72C150.924 120.581 151.239 120.389 151.506 120.144C151.772 119.899 151.986 119.616 152.146 119.296L153.458 119.776C153.074 120.565 152.508 121.168 151.762 121.584C151.015 121.989 150.167 122.192 149.218 122.192ZM158.693 122.192C158.235 122.192 157.781 122.112 157.333 121.952C156.885 121.792 156.475 121.547 156.101 121.216C155.739 120.875 155.445 120.443 155.221 119.92C154.997 119.397 154.885 118.779 154.885 118.064C154.885 117.349 154.997 116.731 155.221 116.208C155.445 115.685 155.739 115.259 156.101 114.928C156.475 114.587 156.885 114.336 157.333 114.176C157.781 114.016 158.235 113.936 158.693 113.936C159.152 113.936 159.605 114.016 160.053 114.176C160.501 114.336 160.907 114.587 161.269 114.928C161.643 115.259 161.941 115.685 162.165 116.208C162.389 116.731 162.501 117.349 162.501 118.064C162.501 118.779 162.389 119.397 162.165 119.92C161.941 120.443 161.643 120.875 161.269 121.216C160.907 121.547 160.501 121.792 160.053 121.952C159.605 122.112 159.152 122.192 158.693 122.192ZM158.693 121.008C159.099 121.008 159.477 120.907 159.829 120.704C160.192 120.491 160.485 120.171 160.709 119.744C160.944 119.307 161.061 118.747 161.061 118.064C161.061 117.381 160.944 116.827 160.709 116.4C160.485 115.963 160.192 115.643 159.829 115.44C159.477 115.227 159.099 115.12 158.693 115.12C158.299 115.12 157.92 115.227 157.557 115.44C157.195 115.643 156.896 115.963 156.661 116.4C156.437 116.827 156.325 117.381 156.325 118.064C156.325 118.747 156.437 119.307 156.661 119.744C156.896 120.171 157.195 120.491 157.557 120.704C157.92 120.907 158.299 121.008 158.693 121.008ZM166.367 122C165.876 122 165.492 121.947 165.215 121.84C164.938 121.733 164.74 121.547 164.623 121.28C164.516 121.003 164.463 120.613 164.463 120.112V110.672H165.807V119.952C165.807 120.293 165.855 120.523 165.951 120.64C166.058 120.757 166.308 120.816 166.703 120.816H167.247V122H166.367ZM170.776 122C170.286 122 169.902 121.947 169.624 121.84C169.347 121.733 169.15 121.547 169.032 121.28C168.926 121.003 168.872 120.613 168.872 120.112V110.672H170.216V119.952C170.216 120.293 170.264 120.523 170.36 120.64C170.467 120.757 170.718 120.816 171.112 120.816H171.656V122H170.776ZM176.673 122.192C175.841 122.192 175.137 122.011 174.561 121.648C173.985 121.275 173.543 120.779 173.233 120.16C172.935 119.531 172.785 118.827 172.785 118.048C172.785 117.205 172.956 116.48 173.297 115.872C173.639 115.253 174.097 114.779 174.673 114.448C175.26 114.107 175.916 113.936 176.641 113.936C177.271 113.936 177.825 114.064 178.305 114.32C178.785 114.565 179.18 114.901 179.489 115.328C179.809 115.744 180.039 116.219 180.177 116.752C180.327 117.285 180.38 117.835 180.337 118.4H174.193C174.236 118.923 174.343 119.355 174.513 119.696C174.695 120.037 174.908 120.304 175.153 120.496C175.399 120.688 175.655 120.821 175.921 120.896C176.199 120.971 176.449 121.008 176.673 121.008C177.121 121.008 177.495 120.939 177.793 120.8C178.103 120.651 178.348 120.459 178.529 120.224L179.825 120.608C179.537 121.067 179.127 121.445 178.593 121.744C178.06 122.043 177.42 122.192 176.673 122.192ZM174.209 117.328H178.913C178.913 116.955 178.817 116.597 178.625 116.256C178.444 115.915 178.183 115.637 177.841 115.424C177.511 115.2 177.111 115.088 176.641 115.088C176.289 115.088 175.937 115.157 175.585 115.296C175.244 115.435 174.945 115.669 174.689 116C174.444 116.32 174.284 116.763 174.209 117.328ZM185.391 122.192C184.633 122.192 183.977 122.016 183.423 121.664C182.868 121.301 182.441 120.811 182.143 120.192C181.844 119.573 181.695 118.864 181.695 118.064C181.695 117.275 181.849 116.571 182.159 115.952C182.479 115.323 182.927 114.832 183.503 114.48C184.079 114.117 184.756 113.936 185.535 113.936C186.015 113.936 186.447 114.021 186.831 114.192C187.215 114.352 187.551 114.565 187.839 114.832C188.127 115.099 188.356 115.397 188.527 115.728L187.295 116.176C187.124 115.856 186.873 115.6 186.543 115.408C186.212 115.216 185.844 115.12 185.439 115.12C185.044 115.12 184.671 115.227 184.319 115.44C183.967 115.643 183.684 115.963 183.471 116.4C183.257 116.827 183.151 117.376 183.151 118.048C183.151 118.709 183.257 119.264 183.471 119.712C183.695 120.149 183.977 120.475 184.319 120.688C184.671 120.901 185.044 121.008 185.439 121.008C185.876 121.008 186.255 120.912 186.575 120.72C186.905 120.517 187.156 120.267 187.327 119.968L188.559 120.416C188.367 120.757 188.111 121.061 187.791 121.328C187.471 121.595 187.108 121.808 186.703 121.968C186.297 122.117 185.86 122.192 185.391 122.192ZM193.033 122C192.532 122 192.142 121.952 191.865 121.856C191.598 121.749 191.412 121.552 191.305 121.264C191.209 120.976 191.161 120.56 191.161 120.016V115.136H189.817V114.064H191.161V112.08H192.505V114.064H194.153V115.136H192.505V119.792C192.505 120.24 192.553 120.523 192.649 120.64C192.756 120.757 192.98 120.816 193.321 120.816H194.153V122H193.033ZM196.613 122V115.136H195.509V114.064H197.957V122H196.613ZM197.157 112.56C196.891 112.56 196.656 112.464 196.453 112.272C196.261 112.069 196.165 111.835 196.165 111.568C196.165 111.291 196.261 111.056 196.453 110.864C196.656 110.672 196.891 110.576 197.157 110.576C197.435 110.576 197.669 110.672 197.861 110.864C198.053 111.056 198.149 111.291 198.149 111.568C198.149 111.835 198.053 112.069 197.861 112.272C197.669 112.464 197.435 112.56 197.157 112.56ZM202.433 122L199.601 114.064H201.057L203.137 120.24L205.201 114.064H206.657L203.825 122H202.433ZM211.455 122.192C210.623 122.192 209.919 122.011 209.343 121.648C208.767 121.275 208.324 120.779 208.015 120.16C207.716 119.531 207.567 118.827 207.567 118.048C207.567 117.205 207.737 116.48 208.079 115.872C208.42 115.253 208.879 114.779 209.455 114.448C210.041 114.107 210.697 113.936 211.423 113.936C212.052 113.936 212.607 114.064 213.087 114.32C213.567 114.565 213.961 114.901 214.271 115.328C214.591 115.744 214.82 116.219 214.959 116.752C215.108 117.285 215.161 117.835 215.119 118.4H208.975C209.017 118.923 209.124 119.355 209.295 119.696C209.476 120.037 209.689 120.304 209.935 120.496C210.18 120.688 210.436 120.821 210.703 120.896C210.98 120.971 211.231 121.008 211.455 121.008C211.903 121.008 212.276 120.939 212.575 120.8C212.884 120.651 213.129 120.459 213.311 120.224L214.607 120.608C214.319 121.067 213.908 121.445 213.375 121.744C212.841 122.043 212.201 122.192 211.455 122.192ZM208.991 117.328H213.695C213.695 116.955 213.599 116.597 213.407 116.256C213.225 115.915 212.964 115.637 212.623 115.424C212.292 115.2 211.892 115.088 211.423 115.088C211.071 115.088 210.719 115.157 210.367 115.296C210.025 115.435 209.727 115.669 209.471 116C209.225 116.32 209.065 116.763 208.991 117.328Z" fill="#C8BFAE"/>
</svg>
