<svg width="480" height="160" viewBox="0 0 480 160" fill="none" xmlns="http://www.w3.org/2000/svg">
<path d="M41.904 84C41.344 84 41.064 83.7947 41.064 83.384C41.064 83.048 41.3067 82.824 41.792 82.712L43.08 82.488C43.864 82.3387 44.368 82.1333 44.592 81.872C44.8533 81.6107 44.984 81.088 44.984 80.304V47.376C44.984 46.592 44.8533 46.0693 44.592 45.808C44.368 45.5467 43.864 45.3413 43.08 45.192L41.792 44.968C41.3067 44.856 41.064 44.632 41.064 44.296C41.064 43.8853 41.344 43.68 41.904 43.68H52.152C52.712 43.68 52.992 43.904 52.992 44.352C52.992 44.688 52.7867 44.8933 52.376 44.968L50.864 45.192C50.08 45.304 49.5573 45.5093 49.296 45.808C49.072 46.1067 48.96 46.648 48.96 47.432V61.488C48.96 62.0107 49.2213 62.272 49.744 62.272H60.832C61.3547 62.272 61.616 62.0107 61.616 61.488V47.432C61.616 46.648 61.4853 46.1067 61.224 45.808C61 45.5093 60.496 45.304 59.712 45.192L58.2 44.968C57.7893 44.8933 57.584 44.688 57.584 44.352C57.584 43.904 57.864 43.68 58.424 43.68H68.672C69.232 43.68 69.512 43.8853 69.512 44.296C69.512 44.632 69.2693 44.856 68.784 44.968L67.496 45.192C66.712 45.3413 66.1893 45.5467 65.928 45.808C65.704 46.0693 65.592 46.592 65.592 47.376V80.304C65.592 81.088 65.704 81.6107 65.928 81.872C66.1893 82.1333 66.712 82.3387 67.496 82.488L68.784 82.712C69.2693 82.824 69.512 83.048 69.512 83.384C69.512 83.7947 69.232 84 68.672 84H58.424C57.864 84 57.584 83.776 57.584 83.328C57.584 82.992 57.7893 82.7867 58.2 82.712L59.712 82.488C60.496 82.376 61 82.1707 61.224 81.872C61.4853 81.5733 61.616 81.032 61.616 80.248V64.736C61.616 64.2133 61.3547 63.952 60.832 63.952H49.744C49.2213 63.952 48.96 64.2133 48.96 64.736V80.248C48.96 81.032 49.072 81.5733 49.296 81.872C49.5573 82.1707 50.08 82.376 50.864 82.488L52.376 82.712C52.7867 82.7867 52.992 82.992 52.992 83.328C52.992 83.776 52.712 84 52.152 84H41.904ZM77.8901 84.504C76.9567 84.504 76.0607 84.2987 75.2021 83.888C74.3434 83.4773 73.6341 82.824 73.0741 81.928C72.5141 81.032 72.2341 79.8373 72.2341 78.344V58.856C72.2341 58.184 72.1221 57.7173 71.8981 57.456C71.7114 57.1947 71.3567 57.0453 70.8341 57.008L69.8821 56.896C69.2474 56.8213 68.9301 56.5787 68.9301 56.168C68.9301 55.6827 69.2847 55.44 69.9941 55.44H75.2021C75.7621 55.44 76.0421 55.72 76.0421 56.28V77.168C76.0421 78.8853 76.3594 80.1173 76.9941 80.864C77.6661 81.5733 78.5807 81.928 79.7381 81.928C80.8954 81.928 81.9221 81.6107 82.8181 80.976C83.7141 80.304 84.4234 79.4267 84.9461 78.344C85.5061 77.224 85.7861 76.0107 85.7861 74.704V58.856C85.7861 58.184 85.6741 57.7173 85.4501 57.456C85.2634 57.1947 84.9087 57.0453 84.3861 57.008L83.4341 56.896C82.7994 56.8213 82.4821 56.5787 82.4821 56.168C82.4821 55.6827 82.8367 55.44 83.5461 55.44H88.7541C89.3141 55.44 89.5941 55.72 89.5941 56.28V78.008C89.5941 78.68 89.6874 79.1467 89.8741 79.408C90.0981 79.632 90.4714 79.7813 90.9941 79.856L92.1701 80.024C92.6554 80.0613 92.8981 80.248 92.8981 80.584C92.8981 80.92 92.5994 81.144 92.0021 81.256C90.8447 81.4053 89.9114 81.704 89.2021 82.152C88.5301 82.6 87.9327 83.1413 87.4101 83.776C87.0741 84.112 86.7941 84.28 86.5701 84.28C86.2341 84.28 86.0661 84.056 86.0661 83.608V81.032C86.0661 80.7333 85.9541 80.5653 85.7301 80.528C85.5434 80.4533 85.3381 80.528 85.1141 80.752C83.7327 82.1333 82.5007 83.104 81.4181 83.664C80.3727 84.224 79.1967 84.504 77.8901 84.504ZM93.8237 84C93.2637 84 92.9837 83.7947 92.9837 83.384C92.9837 83.048 93.2264 82.824 93.7117 82.712L94.3837 82.6C95.1677 82.4507 95.6717 82.2267 95.8957 81.928C96.1571 81.592 96.2877 81.032 96.2877 80.248V61.432C96.2877 60.76 96.1757 60.312 95.9517 60.088C95.7651 59.8267 95.4104 59.6587 94.8877 59.584L93.7117 59.416C93.2264 59.3787 92.9837 59.1733 92.9837 58.8C92.9837 58.5013 93.2824 58.296 93.8797 58.184C95.0371 57.9973 95.9144 57.6987 96.5117 57.288C97.1464 56.8773 97.7997 56.3733 98.4717 55.776C98.8077 55.44 99.0877 55.272 99.3117 55.272C99.6477 55.272 99.8157 55.496 99.8157 55.944V58.464C99.8157 58.7253 99.9277 58.9307 100.152 59.08C100.376 59.192 100.618 59.1173 100.88 58.856C102.41 57.4 103.736 56.4107 104.856 55.888C106.013 55.3653 107.17 55.104 108.328 55.104C109.41 55.104 110.362 55.4027 111.184 56C112.042 56.56 112.677 57.4187 113.088 58.576C113.2 58.8747 113.386 59.0613 113.648 59.136C113.946 59.1733 114.226 59.0613 114.488 58.8C116.018 57.3813 117.344 56.4107 118.464 55.888C119.584 55.3653 120.722 55.104 121.88 55.104C123.448 55.104 124.717 55.7013 125.688 56.896C126.696 58.0533 127.2 59.7707 127.2 62.048V80.248C127.2 81.032 127.312 81.592 127.536 81.928C127.797 82.2267 128.32 82.432 129.104 82.544L130.336 82.712C130.746 82.7867 130.952 83.0107 130.952 83.384C130.952 83.7947 130.728 84 130.28 84H120.704C120.181 84 119.92 83.7947 119.92 83.384C119.92 83.0107 120.125 82.7867 120.536 82.712L121.32 82.6C122.178 82.488 122.738 82.264 123 81.928C123.261 81.592 123.392 81.032 123.392 80.248V62.664C123.392 60.8347 123.056 59.5467 122.384 58.8C121.749 58.0533 120.872 57.68 119.752 57.68C118.632 57.68 117.605 58.0347 116.672 58.744C115.776 59.416 115.048 60.3307 114.488 61.488C113.928 62.608 113.648 63.8587 113.648 65.24V80.248C113.648 81.032 113.778 81.592 114.04 81.928C114.301 82.2267 114.842 82.432 115.664 82.544L116.896 82.712C117.306 82.7867 117.512 83.0107 117.512 83.384C117.512 83.7947 117.288 84 116.84 84H107.32C106.797 84 106.536 83.7947 106.536 83.384C106.536 83.0107 106.741 82.7867 107.152 82.712L107.936 82.6C108.72 82.488 109.224 82.264 109.448 81.928C109.709 81.592 109.84 81.032 109.84 80.248V62.664C109.84 60.8347 109.504 59.5467 108.832 58.8C108.197 58.0533 107.32 57.68 106.2 57.68C105.08 57.68 104.053 58.0347 103.12 58.744C102.224 59.416 101.496 60.3307 100.936 61.488C100.376 62.608 100.096 63.8587 100.096 65.24V80.248C100.096 81.032 100.208 81.592 100.432 81.928C100.693 82.264 101.216 82.4693 102 82.544L103.512 82.712C103.922 82.7867 104.128 82.992 104.128 83.328C104.128 83.776 103.848 84 103.288 84H93.8237ZM136.693 84.504C135.125 84.504 133.837 84.0187 132.829 83.048C131.821 82.04 131.317 80.7147 131.317 79.072C131.317 77.4667 131.821 75.9547 132.829 74.536C133.837 73.08 135.219 71.7733 136.973 70.616C138.728 69.4587 140.725 68.5253 142.965 67.816C143.451 67.6667 143.693 67.3493 143.693 66.864V61.768C143.693 59.976 143.413 58.7067 142.853 57.96C142.293 57.176 141.528 56.784 140.557 56.784C139.624 56.784 138.765 57.2133 137.981 58.072C137.235 58.8933 136.693 60.2933 136.357 62.272C136.171 63.4667 135.76 64.344 135.125 64.904C134.528 65.4267 133.912 65.688 133.277 65.688C132.232 65.688 131.709 65.1653 131.709 64.12C131.709 63.0373 132.008 61.9733 132.605 60.928C133.24 59.8453 134.061 58.8747 135.069 58.016C136.077 57.12 137.179 56.4107 138.373 55.888C139.568 55.3653 140.763 55.104 141.957 55.104C145.653 55.104 147.501 57.2507 147.501 61.544V78.68C147.501 80.248 147.893 81.032 148.677 81.032C149.163 81.032 149.611 80.7147 150.021 80.08C150.432 79.408 150.637 78.288 150.637 76.72C150.637 76.1227 150.88 75.824 151.365 75.824C151.813 75.824 152.037 76.1413 152.037 76.776C152.037 79.5013 151.552 81.48 150.581 82.712C149.648 83.9067 148.584 84.504 147.389 84.504C146.493 84.504 145.784 84.1493 145.261 83.44C144.739 82.6933 144.384 81.816 144.197 80.808C144.16 80.4347 143.992 80.248 143.693 80.248C143.432 80.2107 143.171 80.3787 142.909 80.752C142.013 81.984 141.099 82.9173 140.165 83.552C139.232 84.1867 138.075 84.504 136.693 84.504ZM138.205 81.928C139.176 81.928 140.072 81.592 140.893 80.92C141.715 80.2107 142.387 79.2773 142.909 78.12C143.432 76.9627 143.693 75.656 143.693 74.2V70.112C143.693 69.4027 143.301 69.1973 142.517 69.496C140.24 70.3173 138.467 71.456 137.197 72.912C135.965 74.3307 135.349 76.048 135.349 78.064C135.349 80.64 136.301 81.928 138.205 81.928ZM152.421 84C151.861 84 151.581 83.7947 151.581 83.384C151.581 83.048 151.823 82.824 152.309 82.712L152.981 82.6C153.765 82.4507 154.269 82.2267 154.493 81.928C154.754 81.592 154.885 81.032 154.885 80.248V61.432C154.885 60.76 154.773 60.312 154.549 60.088C154.362 59.8267 154.007 59.6587 153.485 59.584L152.309 59.416C151.823 59.3787 151.581 59.1733 151.581 58.8C151.581 58.5013 151.879 58.296 152.477 58.184C153.634 57.9973 154.511 57.6987 155.109 57.288C155.743 56.8773 156.397 56.3733 157.069 55.776C157.405 55.44 157.685 55.272 157.909 55.272C158.245 55.272 158.413 55.496 158.413 55.944V58.464C158.413 58.8 158.525 59.024 158.749 59.136C159.01 59.2107 159.29 59.0987 159.589 58.8C161.082 57.3813 162.389 56.4107 163.509 55.888C164.666 55.3653 165.879 55.104 167.149 55.104C168.829 55.104 170.173 55.7013 171.181 56.896C172.189 58.0533 172.693 59.7707 172.693 62.048V80.248C172.693 81.032 172.805 81.592 173.029 81.928C173.29 82.2267 173.813 82.432 174.597 82.544L175.829 82.712C176.239 82.7867 176.445 83.0107 176.445 83.384C176.445 83.7947 176.221 84 175.773 84H166.365C165.842 84 165.581 83.7947 165.581 83.384C165.581 83.0107 165.786 82.7867 166.197 82.712L166.981 82.6C167.765 82.488 168.269 82.264 168.493 81.928C168.754 81.592 168.885 81.032 168.885 80.248V62.664C168.885 60.8347 168.549 59.5467 167.877 58.8C167.205 58.0533 166.253 57.68 165.021 57.68C163.826 57.68 162.743 58.0347 161.773 58.744C160.839 59.416 160.093 60.3307 159.533 61.488C158.973 62.608 158.693 63.8587 158.693 65.24V80.248C158.693 81.032 158.805 81.592 159.029 81.928C159.29 82.264 159.813 82.4693 160.597 82.544L162.109 82.712C162.519 82.7867 162.725 82.992 162.725 83.328C162.725 83.776 162.445 84 161.885 84H152.421Z" fill="#FAF7F2"/>
<path d="M185.256 92.736C184.845 93.1467 184.491 93.2213 184.192 92.96C183.856 92.6987 183.912 92.344 184.36 91.896C185.443 90.8133 186.208 89.8053 186.656 88.872C187.104 87.9387 187.328 86.968 187.328 85.96C187.328 85.3627 187.179 84.896 186.88 84.56C186.581 84.2613 186.245 83.9813 185.872 83.72C185.499 83.4587 185.163 83.16 184.864 82.824C184.565 82.4507 184.416 81.928 184.416 81.256C184.416 80.5093 184.659 79.8933 185.144 79.408C185.667 78.8853 186.32 78.624 187.104 78.624C188.037 78.624 188.765 78.96 189.288 79.632C189.848 80.304 190.128 81.2187 190.128 82.376C190.128 84.3547 189.661 86.2587 188.728 88.088C187.832 89.9547 186.675 91.504 185.256 92.736Z" fill="#FAF7F2"/>
<path d="M54.16 97.44C54.2667 99.28 54.48 100.987 54.8 102.56C55.12 104.133 55.6133 105.573 56.28 106.88C56.96 108.187 57.8667 109.367 59 110.42C60.1467 111.473 61.58 112.4 63.3 113.2L63.26 113.42C62.9133 113.46 62.6133 113.56 62.36 113.72C62.12 113.88 61.94 114.153 61.82 114.54C60.22 113.647 58.9133 112.62 57.9 111.46C56.8867 110.287 56.0933 108.987 55.52 107.56C54.9467 106.133 54.5267 104.58 54.26 102.9C54.0067 101.207 53.8467 99.4067 53.78 97.5L54.16 97.44ZM54.16 97.44C54.1333 98.4 54.0933 99.3867 54.04 100.4C54 101.4 53.8933 102.407 53.72 103.42C53.5467 104.42 53.2733 105.42 52.9 106.42C52.5267 107.42 52.0133 108.393 51.36 109.34C50.72 110.287 49.8867 111.2 48.86 112.08C47.8333 112.947 46.58 113.767 45.1 114.54L44.82 114.2C46.42 113.213 47.7133 112.173 48.7 111.08C49.7 109.973 50.48 108.833 51.04 107.66C51.6 106.473 52 105.273 52.24 104.06C52.48 102.833 52.62 101.6 52.66 100.36C52.7133 99.1067 52.74 97.8733 52.74 96.66L54.86 96.88C54.8467 97.0267 54.7867 97.1533 54.68 97.26C54.5867 97.3533 54.4133 97.4133 54.16 97.44ZM74.78 100.66C75.2067 101.647 75.7267 102.593 76.34 103.5C76.9667 104.407 77.6533 105.26 78.4 106.06C79.1467 106.86 79.92 107.573 80.72 108.2C81.5333 108.827 82.3467 109.347 83.16 109.76L83.12 109.96C82.8267 109.987 82.56 110.1 82.32 110.3C82.08 110.487 81.9 110.74 81.78 111.06C80.7667 110.367 79.7933 109.513 78.86 108.5C77.94 107.473 77.1 106.313 76.34 105.02C75.5933 103.713 74.9667 102.313 74.46 100.82L74.78 100.66ZM73.98 100.98C73.1667 103.167 71.9933 105.193 70.46 107.06C68.9267 108.913 67.08 110.48 64.92 111.76L64.68 111.5C65.8933 110.593 67 109.553 68 108.38C69 107.207 69.88 105.96 70.64 104.64C71.4133 103.32 72.0267 101.993 72.48 100.66H73.98V100.98ZM75.38 96.44C75.3533 96.5867 75.2867 96.7133 75.18 96.82C75.0867 96.9133 74.9 96.98 74.62 97.02V114.06C74.62 114.113 74.5667 114.18 74.46 114.26C74.3667 114.34 74.24 114.407 74.08 114.46C73.92 114.513 73.7467 114.54 73.56 114.54H73.3V96.2L75.38 96.44ZM77.42 108.3C77.42 108.3 77.4733 108.353 77.58 108.46C77.7 108.553 77.8467 108.68 78.02 108.84C78.2067 108.987 78.4 109.147 78.6 109.32C78.8 109.493 78.98 109.667 79.14 109.84C79.0867 110.053 78.92 110.16 78.64 110.16H69.1L68.94 109.56H76.46L77.42 108.3ZM80.76 99.34C80.76 99.34 80.8267 99.3933 80.96 99.5C81.0933 99.5933 81.2533 99.72 81.44 99.88C81.64 100.04 81.8467 100.213 82.06 100.4C82.2733 100.587 82.4667 100.76 82.64 100.92C82.5867 101.133 82.4133 101.24 82.12 101.24H65.58L65.4 100.66H79.74L80.76 99.34Z" fill="#C8BFAE"/>
<path d="M92 107.24C91.6667 107.24 91.36 107.16 91.08 107C90.8 106.827 90.5733 106.6 90.4 106.32C90.24 106.04 90.16 105.733 90.16 105.4C90.16 105.053 90.24 104.747 90.4 104.48C90.5733 104.2 90.8 103.98 91.08 103.82C91.36 103.647 91.6667 103.56 92 103.56C92.3467 103.56 92.6533 103.647 92.92 103.82C93.2 103.98 93.42 104.2 93.58 104.48C93.7533 104.747 93.84 105.053 93.84 105.4C93.84 105.733 93.7533 106.04 93.58 106.32C93.42 106.6 93.2 106.827 92.92 107C92.6533 107.16 92.3467 107.24 92 107.24Z" fill="#FAF7F2"/>
<path d="M100.84 107.18H116.36L117.36 105.94C117.36 105.94 117.42 105.987 117.54 106.08C117.66 106.173 117.82 106.3 118.02 106.46C118.22 106.607 118.42 106.773 118.62 106.96C118.833 107.133 119.033 107.3 119.22 107.46C119.167 107.673 118.98 107.78 118.66 107.78H101.02L100.84 107.18ZM101.46 101.06H115.96L116.88 99.86C116.88 99.86 116.94 99.9067 117.06 100C117.18 100.093 117.327 100.213 117.5 100.36C117.687 100.507 117.88 100.667 118.08 100.84C118.28 101.013 118.467 101.18 118.64 101.34C118.587 101.553 118.407 101.66 118.1 101.66H101.64L101.46 101.06ZM106.08 96.38L108.12 96.6C108.093 96.7333 108.02 96.8533 107.9 96.96C107.793 97.0533 107.627 97.12 107.4 97.16V107.52H106.08V96.38ZM112.54 96.38L114.6 96.6C114.573 96.7333 114.5 96.8533 114.38 96.96C114.273 97.0533 114.107 97.12 113.88 97.16V107.52H112.54V96.38ZM112.1 109.16C113.3 109.56 114.3 109.993 115.1 110.46C115.9 110.913 116.533 111.36 117 111.8C117.467 112.227 117.793 112.627 117.98 113C118.167 113.373 118.24 113.687 118.2 113.94C118.16 114.193 118.047 114.36 117.86 114.44C117.673 114.52 117.433 114.493 117.14 114.36C116.913 113.947 116.6 113.513 116.2 113.06C115.8 112.607 115.347 112.153 114.84 111.7C114.347 111.247 113.847 110.827 113.34 110.44C112.833 110.04 112.353 109.687 111.9 109.38L112.1 109.16ZM106.96 108.84L108.74 109.84C108.673 109.933 108.587 110 108.48 110.04C108.373 110.067 108.207 110.06 107.98 110.02C107.527 110.54 106.953 111.08 106.26 111.64C105.567 112.2 104.8 112.733 103.96 113.24C103.133 113.76 102.273 114.2 101.38 114.56L101.18 114.3C101.953 113.833 102.707 113.293 103.44 112.68C104.187 112.053 104.867 111.407 105.48 110.74C106.093 110.06 106.587 109.427 106.96 108.84ZM124.06 99.42H126L126.62 98.66C126.62 98.66 126.687 98.7133 126.82 98.82C126.953 98.9267 127.113 99.06 127.3 99.22C127.487 99.3667 127.653 99.52 127.8 99.68C127.747 99.8933 127.587 100 127.32 100H124.06V99.42ZM124.04 101.54H126.06L126.72 100.72C126.72 100.72 126.787 100.78 126.92 100.9C127.053 101.02 127.213 101.16 127.4 101.32C127.6 101.48 127.773 101.64 127.92 101.8C127.867 102.013 127.707 102.12 127.44 102.12H124.04V101.54ZM122.6 103.62H137.72V104.22H122.6V103.62ZM137 103.62H136.78L137.62 102.78L139.16 104.26C139.08 104.327 138.98 104.373 138.86 104.4C138.74 104.413 138.587 104.42 138.4 104.42C138.227 104.593 138.013 104.787 137.76 105C137.507 105.2 137.247 105.4 136.98 105.6C136.727 105.787 136.493 105.947 136.28 106.08L136.02 105.94C136.127 105.74 136.24 105.5 136.36 105.22C136.493 104.94 136.613 104.653 136.72 104.36C136.84 104.067 136.933 103.82 137 103.62ZM128.6 97.12C129.36 97.2667 129.96 97.46 130.4 97.7C130.84 97.9267 131.16 98.1667 131.36 98.42C131.56 98.66 131.667 98.88 131.68 99.08C131.693 99.28 131.633 99.4267 131.5 99.52C131.367 99.6 131.2 99.5933 131 99.5C130.84 99.26 130.613 99.0067 130.32 98.74C130.04 98.46 129.727 98.1933 129.38 97.94C129.047 97.6867 128.727 97.4867 128.42 97.34L128.6 97.12ZM128.66 100.44C129.46 100.613 130.093 100.84 130.56 101.12C131.027 101.387 131.36 101.66 131.56 101.94C131.773 102.22 131.88 102.473 131.88 102.7C131.88 102.927 131.807 103.087 131.66 103.18C131.527 103.273 131.347 103.267 131.12 103.16C130.987 102.853 130.773 102.547 130.48 102.24C130.2 101.92 129.88 101.62 129.52 101.34C129.173 101.06 128.827 100.833 128.48 100.66L128.66 100.44ZM126.68 96.22L127.98 97.26C127.887 97.3933 127.707 97.4067 127.44 97.3C127.04 97.42 126.527 97.5533 125.9 97.7C125.273 97.8333 124.653 97.94 124.04 98.02L123.94 97.76C124.247 97.64 124.573 97.4867 124.92 97.3C125.267 97.1 125.593 96.9067 125.9 96.72C126.22 96.52 126.48 96.3533 126.68 96.22ZM132.72 99.42H136.16V100H132.9L132.72 99.42ZM132.7 101.54H136.06V102.12H132.88L132.7 101.54ZM132.58 97.32H136.22V97.9H132.76L132.58 97.32ZM123.42 96.92L125.36 97.46C125.307 97.6333 125.08 97.7533 124.68 97.82L124.94 103.88H123.7L123.42 96.92ZM135.44 97.32H135.24L135.9 96.58L137.28 97.78C137.227 97.8467 137.147 97.8933 137.04 97.92C136.947 97.9467 136.813 97.9733 136.64 98L136.24 103.9H134.98L135.44 97.32ZM121.14 109.32H136.12L137.06 108.1C137.06 108.1 137.12 108.147 137.24 108.24C137.36 108.333 137.513 108.46 137.7 108.62C137.887 108.767 138.08 108.927 138.28 109.1C138.48 109.273 138.66 109.44 138.82 109.6C138.767 109.8 138.593 109.9 138.3 109.9H121.32L121.14 109.32ZM129.38 107.86L131.36 108.08C131.333 108.213 131.267 108.32 131.16 108.4C131.053 108.467 130.893 108.52 130.68 108.56V112.66C130.68 113.007 130.633 113.313 130.54 113.58C130.447 113.86 130.247 114.08 129.94 114.24C129.647 114.413 129.18 114.533 128.54 114.6C128.527 114.387 128.487 114.193 128.42 114.02C128.353 113.86 128.24 113.727 128.08 113.62C127.933 113.513 127.713 113.42 127.42 113.34C127.14 113.26 126.767 113.187 126.3 113.12V112.82C126.3 112.82 126.413 112.827 126.64 112.84C126.867 112.853 127.133 112.873 127.44 112.9C127.76 112.913 128.06 112.927 128.34 112.94C128.62 112.953 128.813 112.96 128.92 112.96C129.107 112.96 129.227 112.933 129.28 112.88C129.347 112.827 129.38 112.72 129.38 112.56V107.86ZM133.5 105.94H133.26L134.12 105.1L135.64 106.48C135.56 106.547 135.453 106.593 135.32 106.62C135.2 106.647 135.033 106.667 134.82 106.68C134.447 106.867 134.013 107.06 133.52 107.26C133.027 107.46 132.513 107.653 131.98 107.84C131.46 108.027 130.953 108.187 130.46 108.32H130.08C130.493 108.107 130.913 107.86 131.34 107.58C131.767 107.3 132.173 107.013 132.56 106.72C132.947 106.413 133.26 106.153 133.5 105.94ZM124.66 105.94H134.3V106.52H124.82L124.66 105.94ZM122.56 102.76H122.86C123.02 103.36 123.093 103.907 123.08 104.4C123.067 104.893 122.973 105.32 122.8 105.68C122.627 106.027 122.373 106.287 122.04 106.46C121.773 106.607 121.527 106.66 121.3 106.62C121.087 106.567 120.933 106.46 120.84 106.3C120.747 106.127 120.733 105.94 120.8 105.74C120.88 105.527 121.06 105.333 121.34 105.16C121.593 105.027 121.853 104.753 122.12 104.34C122.4 103.927 122.547 103.4 122.56 102.76ZM130.94 96.4L132.36 97.12C132.267 97.32 132.047 97.3667 131.7 97.26C131.447 97.58 131.127 97.9067 130.74 98.24C130.353 98.56 129.933 98.8667 129.48 99.16C129.027 99.44 128.567 99.68 128.1 99.88L127.88 99.58C128.493 99.18 129.073 98.6933 129.62 98.12C130.18 97.5333 130.62 96.96 130.94 96.4ZM131.26 99.8L132.7 100.5C132.607 100.7 132.387 100.747 132.04 100.64C131.773 101 131.427 101.36 131 101.72C130.573 102.067 130.107 102.387 129.6 102.68C129.093 102.973 128.587 103.227 128.08 103.44L127.86 103.12C128.54 102.707 129.193 102.2 129.82 101.6C130.447 101 130.927 100.4 131.26 99.8ZM154.36 96.58C154.333 96.7267 154.267 96.8467 154.16 96.94C154.067 97.02 153.887 97.08 153.62 97.12V113.24H152.3V96.34L154.36 96.58ZM157.62 111.62C157.62 111.62 157.68 111.673 157.8 111.78C157.92 111.873 158.067 111.993 158.24 112.14C158.427 112.287 158.62 112.447 158.82 112.62C159.02 112.793 159.207 112.96 159.38 113.12C159.327 113.333 159.147 113.44 158.84 113.44H147.02L146.86 112.86H156.68L157.62 111.62ZM157.08 101.9C157.08 101.9 157.133 101.947 157.24 102.04C157.36 102.133 157.507 102.253 157.68 102.4C157.853 102.547 158.04 102.707 158.24 102.88C158.44 103.053 158.62 103.22 158.78 103.38C158.727 103.593 158.547 103.7 158.24 103.7H148.22L148.06 103.1H156.14L157.08 101.9ZM143.22 96.22C143.913 96.46 144.473 96.7267 144.9 97.02C145.327 97.3133 145.633 97.6133 145.82 97.92C146.02 98.2133 146.127 98.4867 146.14 98.74C146.167 98.98 146.127 99.1867 146.02 99.36C145.913 99.52 145.767 99.6133 145.58 99.64C145.393 99.6667 145.187 99.5933 144.96 99.42C144.88 99.0733 144.733 98.7133 144.52 98.34C144.32 97.9667 144.08 97.6067 143.8 97.26C143.533 96.9133 143.267 96.62 143 96.38L143.22 96.22ZM145.44 114.04C145.44 114.08 145.393 114.14 145.3 114.22C145.207 114.3 145.08 114.373 144.92 114.44C144.76 114.507 144.573 114.54 144.36 114.54H144.14V105.62L145.44 104.48V114.04ZM145.34 105.14C146.087 105.367 146.693 105.633 147.16 105.94C147.627 106.233 147.973 106.527 148.2 106.82C148.44 107.1 148.587 107.367 148.64 107.62C148.693 107.873 148.673 108.087 148.58 108.26C148.5 108.42 148.373 108.52 148.2 108.56C148.027 108.6 147.827 108.547 147.6 108.4C147.467 108.067 147.26 107.713 146.98 107.34C146.713 106.953 146.413 106.58 146.08 106.22C145.76 105.86 145.447 105.56 145.14 105.32L145.34 105.14ZM146.28 100.44L147.16 99.62L148.64 101.06C148.547 101.127 148.427 101.173 148.28 101.2C148.147 101.213 147.967 101.227 147.74 101.24C147.313 102.16 146.733 103.1 146 104.06C145.267 105.02 144.447 105.933 143.54 106.8C142.647 107.653 141.713 108.387 140.74 109L140.5 108.76C141.127 108.24 141.747 107.647 142.36 106.98C142.973 106.3 143.553 105.587 144.1 104.84C144.647 104.093 145.127 103.347 145.54 102.6C145.967 101.84 146.293 101.12 146.52 100.44H146.28ZM147.28 100.44V101.04H141.06L140.88 100.44H147.28Z" fill="#C8BFAE"/>
</svg>
