<svg width="480" height="110" viewBox="0 0 480 110" fill="none" xmlns="http://www.w3.org/2000/svg">
<path d="M42.176 82C41.536 82 41.216 81.7653 41.216 81.296C41.216 80.912 41.4933 80.656 42.048 80.528L43.52 80.272C44.416 80.1013 44.992 79.8667 45.248 79.568C45.5467 79.2693 45.696 78.672 45.696 77.776V40.144C45.696 39.248 45.5467 38.6507 45.248 38.352C44.992 38.0533 44.416 37.8187 43.52 37.648L42.048 37.392C41.4933 37.264 41.216 37.008 41.216 36.624C41.216 36.1547 41.536 35.92 42.176 35.92H53.888C54.528 35.92 54.848 36.176 54.848 36.688C54.848 37.072 54.6133 37.3067 54.144 37.392L52.416 37.648C51.52 37.776 50.9227 38.0107 50.624 38.352C50.368 38.6933 50.24 39.312 50.24 40.208V56.272C50.24 56.8693 50.5387 57.168 51.136 57.168H63.808C64.4053 57.168 64.704 56.8693 64.704 56.272V40.208C64.704 39.312 64.5547 38.6933 64.256 38.352C64 38.0107 63.424 37.776 62.528 37.648L60.8 37.392C60.3307 37.3067 60.096 37.072 60.096 36.688C60.096 36.176 60.416 35.92 61.056 35.92H72.768C73.408 35.92 73.728 36.1547 73.728 36.624C73.728 37.008 73.4507 37.264 72.896 37.392L71.424 37.648C70.528 37.8187 69.9307 38.0533 69.632 38.352C69.376 38.6507 69.248 39.248 69.248 40.144V77.776C69.248 78.672 69.376 79.2693 69.632 79.568C69.9307 79.8667 70.528 80.1013 71.424 80.272L72.896 80.528C73.4507 80.656 73.728 80.912 73.728 81.296C73.728 81.7653 73.408 82 72.768 82H61.056C60.416 82 60.096 81.744 60.096 81.232C60.096 80.848 60.3307 80.6133 60.8 80.528L62.528 80.272C63.424 80.144 64 79.9093 64.256 79.568C64.5547 79.2267 64.704 78.608 64.704 77.712V59.984C64.704 59.3867 64.4053 59.088 63.808 59.088H51.136C50.5387 59.088 50.24 59.3867 50.24 59.984V77.712C50.24 78.608 50.368 79.2267 50.624 79.568C50.9227 79.9093 51.52 80.144 52.416 80.272L54.144 80.528C54.6133 80.6133 54.848 80.848 54.848 81.232C54.848 81.744 54.528 82 53.888 82H42.176ZM83.3315 82.576C82.2648 82.576 81.2408 82.3413 80.2595 81.872C79.2782 81.4027 78.4675 80.656 77.8275 79.632C77.1875 78.608 76.8675 77.2427 76.8675 75.536V53.264C76.8675 52.496 76.7395 51.9627 76.4835 51.664C76.2702 51.3653 75.8648 51.1947 75.2675 51.152L74.1795 51.024C73.4542 50.9387 73.0915 50.6613 73.0915 50.192C73.0915 49.6373 73.4968 49.36 74.3075 49.36H80.2595C80.8995 49.36 81.2195 49.68 81.2195 50.32V74.192C81.2195 76.1547 81.5822 77.5627 82.3075 78.416C83.0755 79.2267 84.1208 79.632 85.4435 79.632C86.7662 79.632 87.9395 79.2693 88.9635 78.544C89.9875 77.776 90.7982 76.7733 91.3955 75.536C92.0355 74.256 92.3555 72.8693 92.3555 71.376V53.264C92.3555 52.496 92.2275 51.9627 91.9715 51.664C91.7582 51.3653 91.3528 51.1947 90.7555 51.152L89.6675 51.024C88.9422 50.9387 88.5795 50.6613 88.5795 50.192C88.5795 49.6373 88.9848 49.36 89.7955 49.36H95.7475C96.3875 49.36 96.7075 49.68 96.7075 50.32V75.152C96.7075 75.92 96.8142 76.4533 97.0275 76.752C97.2835 77.008 97.7102 77.1787 98.3075 77.264L99.6515 77.456C100.206 77.4987 100.484 77.712 100.484 78.096C100.484 78.48 100.142 78.736 99.4595 78.864C98.1368 79.0347 97.0702 79.376 96.2595 79.888C95.4915 80.4 94.8088 81.0187 94.2115 81.744C93.8275 82.128 93.5075 82.32 93.2515 82.32C92.8675 82.32 92.6755 82.064 92.6755 81.552V78.608C92.6755 78.2667 92.5475 78.0747 92.2915 78.032C92.0782 77.9467 91.8435 78.032 91.5875 78.288C90.0088 79.8667 88.6008 80.976 87.3635 81.616C86.1688 82.256 84.8248 82.576 83.3315 82.576ZM101.57 82C100.93 82 100.61 81.7653 100.61 81.296C100.61 80.912 100.887 80.656 101.442 80.528L102.21 80.4C103.106 80.2293 103.682 79.9733 103.938 79.632C104.237 79.248 104.386 78.608 104.386 77.712V56.208C104.386 55.44 104.258 54.928 104.002 54.672C103.789 54.3733 103.383 54.1813 102.786 54.096L101.442 53.904C100.887 53.8613 100.61 53.6267 100.61 53.2C100.61 52.8587 100.951 52.624 101.634 52.496C102.957 52.2827 103.959 51.9413 104.642 51.472C105.367 51.0027 106.114 50.4267 106.882 49.744C107.266 49.36 107.586 49.168 107.842 49.168C108.226 49.168 108.418 49.424 108.418 49.936V52.816C108.418 53.1147 108.546 53.3493 108.802 53.52C109.058 53.648 109.335 53.5627 109.634 53.264C111.383 51.6 112.898 50.4693 114.178 49.872C115.501 49.2747 116.823 48.976 118.146 48.976C119.383 48.976 120.471 49.3173 121.41 50C122.391 50.64 123.117 51.6213 123.586 52.944C123.714 53.2853 123.927 53.4987 124.226 53.584C124.567 53.6267 124.887 53.4987 125.186 53.2C126.935 51.5787 128.45 50.4693 129.73 49.872C131.01 49.2747 132.311 48.976 133.634 48.976C135.426 48.976 136.877 49.6587 137.986 51.024C139.138 52.3467 139.714 54.3093 139.714 56.912V77.712C139.714 78.608 139.842 79.248 140.098 79.632C140.397 79.9733 140.994 80.208 141.89 80.336L143.298 80.528C143.767 80.6133 144.002 80.8693 144.002 81.296C144.002 81.7653 143.746 82 143.234 82H132.29C131.693 82 131.394 81.7653 131.394 81.296C131.394 80.8693 131.629 80.6133 132.098 80.528L132.994 80.4C133.975 80.272 134.615 80.016 134.914 79.632C135.213 79.248 135.362 78.608 135.362 77.712V57.616C135.362 55.5253 134.978 54.0533 134.21 53.2C133.485 52.3467 132.482 51.92 131.202 51.92C129.922 51.92 128.749 52.3253 127.682 53.136C126.658 53.904 125.826 54.9493 125.186 56.272C124.546 57.552 124.226 58.9813 124.226 60.56V77.712C124.226 78.608 124.375 79.248 124.674 79.632C124.973 79.9733 125.591 80.208 126.53 80.336L127.938 80.528C128.407 80.6133 128.642 80.8693 128.642 81.296C128.642 81.7653 128.386 82 127.874 82H116.994C116.397 82 116.098 81.7653 116.098 81.296C116.098 80.8693 116.333 80.6133 116.802 80.528L117.698 80.4C118.594 80.272 119.17 80.016 119.426 79.632C119.725 79.248 119.874 78.608 119.874 77.712V57.616C119.874 55.5253 119.49 54.0533 118.722 53.2C117.997 52.3467 116.994 51.92 115.714 51.92C114.434 51.92 113.261 52.3253 112.194 53.136C111.17 53.904 110.338 54.9493 109.698 56.272C109.058 57.552 108.738 58.9813 108.738 60.56V77.712C108.738 78.608 108.866 79.248 109.122 79.632C109.421 80.016 110.018 80.2507 110.914 80.336L112.642 80.528C113.111 80.6133 113.346 80.848 113.346 81.232C113.346 81.744 113.026 82 112.386 82H101.57ZM150.592 82.576C148.8 82.576 147.328 82.0213 146.176 80.912C145.024 79.76 144.448 78.2453 144.448 76.368C144.448 74.5333 145.024 72.8053 146.176 71.184C147.328 69.52 148.907 68.0267 150.912 66.704C152.918 65.3813 155.2 64.3147 157.76 63.504C158.315 63.3333 158.592 62.9707 158.592 62.416V56.592C158.592 54.544 158.272 53.0933 157.632 52.24C156.992 51.344 156.118 50.896 155.008 50.896C153.942 50.896 152.96 51.3867 152.064 52.368C151.211 53.3067 150.592 54.9067 150.208 57.168C149.995 58.5333 149.526 59.536 148.8 60.176C148.118 60.7733 147.414 61.072 146.688 61.072C145.494 61.072 144.896 60.4747 144.896 59.28C144.896 58.0427 145.238 56.8267 145.92 55.632C146.646 54.3947 147.584 53.2853 148.736 52.304C149.888 51.28 151.147 50.4693 152.512 49.872C153.878 49.2747 155.243 48.976 156.608 48.976C160.832 48.976 162.944 51.4293 162.944 56.336V75.92C162.944 77.712 163.392 78.608 164.288 78.608C164.843 78.608 165.355 78.2453 165.824 77.52C166.294 76.752 166.528 75.472 166.528 73.68C166.528 72.9973 166.806 72.656 167.361 72.656C167.873 72.656 168.128 73.0187 168.128 73.744C168.128 76.8587 167.574 79.12 166.465 80.528C165.398 81.8933 164.182 82.576 162.816 82.576C161.792 82.576 160.982 82.1707 160.384 81.36C159.787 80.5067 159.382 79.504 159.168 78.352C159.126 77.9253 158.934 77.712 158.592 77.712C158.294 77.6693 157.995 77.8613 157.696 78.288C156.672 79.696 155.627 80.7627 154.56 81.488C153.494 82.2133 152.171 82.576 150.592 82.576ZM152.32 79.632C153.43 79.632 154.454 79.248 155.392 78.48C156.331 77.6693 157.099 76.6027 157.696 75.28C158.294 73.9573 158.592 72.464 158.592 70.8V66.128C158.592 65.3173 158.144 65.0827 157.248 65.424C154.646 66.3627 152.619 67.664 151.168 69.328C149.76 70.9493 149.056 72.912 149.056 75.216C149.056 78.16 150.144 79.632 152.32 79.632ZM168.595 82C167.955 82 167.635 81.7653 167.635 81.296C167.635 80.912 167.912 80.656 168.467 80.528L169.235 80.4C170.131 80.2293 170.707 79.9733 170.963 79.632C171.262 79.248 171.411 78.608 171.411 77.712V56.208C171.411 55.44 171.283 54.928 171.027 54.672C170.814 54.3733 170.408 54.1813 169.811 54.096L168.467 53.904C167.912 53.8613 167.635 53.6267 167.635 53.2C167.635 52.8587 167.976 52.624 168.659 52.496C169.982 52.2827 170.984 51.9413 171.667 51.472C172.392 51.0027 173.139 50.4267 173.907 49.744C174.291 49.36 174.611 49.168 174.867 49.168C175.251 49.168 175.443 49.424 175.443 49.936V52.816C175.443 53.2 175.571 53.456 175.827 53.584C176.126 53.6693 176.446 53.5413 176.787 53.2C178.494 51.5787 179.987 50.4693 181.267 49.872C182.59 49.2747 183.976 48.976 185.427 48.976C187.347 48.976 188.883 49.6587 190.035 51.024C191.187 52.3467 191.763 54.3093 191.763 56.912V77.712C191.763 78.608 191.891 79.248 192.147 79.632C192.446 79.9733 193.043 80.208 193.939 80.336L195.347 80.528C195.816 80.6133 196.051 80.8693 196.051 81.296C196.051 81.7653 195.795 82 195.283 82H184.531C183.934 82 183.635 81.7653 183.635 81.296C183.635 80.8693 183.87 80.6133 184.339 80.528L185.235 80.4C186.131 80.272 186.707 80.016 186.963 79.632C187.262 79.248 187.411 78.608 187.411 77.712V57.616C187.411 55.5253 187.027 54.0533 186.259 53.2C185.491 52.3467 184.403 51.92 182.995 51.92C181.63 51.92 180.392 52.3253 179.283 53.136C178.216 53.904 177.363 54.9493 176.723 56.272C176.083 57.552 175.763 58.9813 175.763 60.56V77.712C175.763 78.608 175.891 79.248 176.147 79.632C176.446 80.016 177.043 80.2507 177.939 80.336L179.667 80.528C180.136 80.6133 180.371 80.848 180.371 81.232C180.371 81.744 180.051 82 179.411 82H168.595Z" fill="#322A22"/>
<path d="M204.864 91.984C204.395 92.4533 203.989 92.5387 203.648 92.24C203.264 91.9413 203.328 91.536 203.84 91.024C205.077 89.7867 205.952 88.6347 206.464 87.568C206.976 86.5013 207.232 85.392 207.232 84.24C207.232 83.5573 207.061 83.024 206.72 82.64C206.379 82.2987 205.995 81.9787 205.568 81.68C205.141 81.3813 204.757 81.04 204.416 80.656C204.075 80.2293 203.904 79.632 203.904 78.864C203.904 78.0107 204.181 77.3067 204.736 76.752C205.333 76.1547 206.08 75.856 206.976 75.856C208.043 75.856 208.875 76.24 209.472 77.008C210.112 77.776 210.432 78.8213 210.432 80.144C210.432 82.4053 209.899 84.5813 208.832 86.672C207.808 88.8053 206.485 90.576 204.864 91.984Z" fill="#322A22"/>
</svg>
