<svg width="480" height="120" viewBox="0 0 480 120" fill="none" xmlns="http://www.w3.org/2000/svg">
<path d="M64.672 49.368C64.928 53.88 65.44 58.008 66.208 61.752C67.008 65.496 68.208 68.888 69.808 71.928C71.44 74.936 73.616 77.608 76.336 79.944C79.056 82.248 82.48 84.232 86.608 85.896L86.512 86.472C85.328 86.664 84.336 87.112 83.536 87.816C82.768 88.552 82.224 89.56 81.904 90.84C78.256 88.856 75.264 86.488 72.928 83.736C70.624 80.984 68.832 77.88 67.552 74.424C66.304 70.936 65.408 67.112 64.864 62.952C64.32 58.76 63.968 54.264 63.808 49.464L64.672 49.368ZM64.672 49.368C64.608 51.768 64.512 54.216 64.384 56.712C64.256 59.208 63.984 61.704 63.568 64.2C63.152 66.696 62.48 69.16 61.552 71.592C60.656 73.992 59.408 76.344 57.808 78.648C56.208 80.92 54.128 83.096 51.568 85.176C49.04 87.256 45.952 89.208 42.304 91.032L41.728 90.264C45.376 87.8 48.336 85.224 50.608 82.536C52.88 79.816 54.64 77.016 55.888 74.136C57.168 71.256 58.064 68.328 58.576 65.352C59.12 62.376 59.44 59.384 59.536 56.376C59.632 53.336 59.68 50.328 59.68 47.352L66.4 48.024C66.368 48.344 66.224 48.632 65.968 48.888C65.712 49.112 65.28 49.272 64.672 49.368ZM114.496 57.288C115.488 59.624 116.704 61.864 118.144 64.008C119.616 66.12 121.232 68.088 122.992 69.912C124.784 71.704 126.64 73.304 128.56 74.712C130.512 76.12 132.464 77.288 134.416 78.216L134.272 78.696C133.344 78.856 132.48 79.288 131.68 79.992C130.912 80.696 130.336 81.608 129.952 82.728C127.52 81 125.28 78.904 123.232 76.44C121.184 73.976 119.36 71.16 117.76 67.992C116.192 64.824 114.896 61.352 113.872 57.576L114.496 57.288ZM112.48 58.056C110.592 63.496 107.744 68.456 103.936 72.936C100.16 77.416 95.488 81.16 89.92 84.168L89.392 83.64C92.208 81.464 94.752 78.936 97.024 76.056C99.328 73.176 101.312 70.12 102.976 66.888C104.672 63.656 106 60.456 106.96 57.288H112.48V58.056ZM116.176 47.064C116.112 47.448 115.952 47.768 115.696 48.024C115.44 48.248 114.944 48.424 114.208 48.552V89.496C114.208 89.688 114.016 89.896 113.632 90.12C113.28 90.344 112.816 90.536 112.24 90.696C111.664 90.888 111.056 90.984 110.416 90.984H109.504V46.392L116.176 47.064ZM119.536 75C119.536 75 119.696 75.144 120.016 75.432C120.336 75.72 120.736 76.088 121.216 76.536C121.728 76.984 122.256 77.464 122.8 77.976C123.344 78.456 123.84 78.92 124.288 79.368C124.16 79.88 123.728 80.136 122.992 80.136H100.144L99.76 78.744H116.848L119.536 75ZM127.696 53.352C127.696 53.352 127.872 53.496 128.224 53.784C128.608 54.072 129.072 54.456 129.616 54.936C130.16 55.384 130.736 55.88 131.344 56.424C131.984 56.936 132.544 57.432 133.024 57.912C132.896 58.424 132.464 58.68 131.728 58.68H91.648L91.216 57.288H124.72L127.696 53.352Z" fill="#322A22"/>
<path d="M156 73.176C155.2 73.176 154.464 72.984 153.792 72.6C153.12 72.184 152.576 71.64 152.16 70.968C151.776 70.296 151.584 69.56 151.584 68.76C151.584 67.928 151.776 67.192 152.16 66.552C152.576 65.88 153.12 65.352 153.792 64.968C154.464 64.552 155.2 64.344 156 64.344C156.832 64.344 157.568 64.552 158.208 64.968C158.88 65.352 159.408 65.88 159.792 66.552C160.208 67.192 160.416 67.928 160.416 68.76C160.416 69.56 160.208 70.296 159.792 70.968C159.408 71.64 158.88 72.184 158.208 72.6C157.568 72.984 156.832 73.176 156 73.176Z" fill="#322A22"/>
<path d="M177.776 73.176H214.256L217.136 69.48C217.136 69.48 217.312 69.624 217.664 69.912C218.016 70.168 218.464 70.52 219.008 70.968C219.584 71.384 220.176 71.848 220.784 72.36C221.392 72.84 221.936 73.32 222.416 73.8C222.288 74.312 221.84 74.568 221.072 74.568H178.16L177.776 73.176ZM179.36 58.488H213.44L216.08 54.984C216.08 54.984 216.24 55.128 216.56 55.416C216.88 55.672 217.28 56.008 217.76 56.424C218.272 56.808 218.8 57.256 219.344 57.768C219.92 58.248 220.432 58.696 220.88 59.112C220.752 59.624 220.32 59.88 219.584 59.88H179.792L179.36 58.488ZM189.728 46.92L196.064 47.496C196 47.848 195.84 48.152 195.584 48.408C195.36 48.632 194.944 48.792 194.336 48.888V73.896H189.728V46.92ZM205.232 46.92L211.616 47.496C211.584 47.848 211.44 48.152 211.184 48.408C210.928 48.632 210.496 48.792 209.888 48.888V73.896H205.232V46.92ZM204.416 77.592C207.616 78.296 210.256 79.176 212.336 80.232C214.448 81.256 216.08 82.328 217.232 83.448C218.384 84.568 219.152 85.64 219.536 86.664C219.92 87.688 219.984 88.568 219.728 89.304C219.504 90.04 219.056 90.52 218.384 90.744C217.712 91 216.896 90.888 215.936 90.408C215.392 89.352 214.656 88.248 213.728 87.096C212.832 85.976 211.824 84.872 210.704 83.784C209.616 82.664 208.496 81.624 207.344 80.664C206.192 79.672 205.072 78.792 203.984 78.024L204.416 77.592ZM192.08 76.44L197.84 79.8C197.68 80.024 197.456 80.184 197.168 80.28C196.912 80.376 196.512 80.376 195.968 80.28C194.752 81.592 193.232 82.936 191.408 84.312C189.616 85.656 187.632 86.92 185.456 88.104C183.312 89.288 181.056 90.28 178.688 91.08L178.256 90.504C180.176 89.288 182.016 87.88 183.776 86.28C185.568 84.648 187.184 82.984 188.624 81.288C190.064 79.56 191.216 77.944 192.08 76.44ZM234.176 54.456H238.352L239.984 52.392C239.984 52.392 240.16 52.536 240.512 52.824C240.864 53.112 241.28 53.464 241.76 53.88C242.272 54.296 242.704 54.696 243.056 55.08C242.96 55.592 242.576 55.848 241.904 55.848H234.176V54.456ZM234.08 59.544H238.448L240.176 57.384C240.176 57.384 240.352 57.528 240.704 57.816C241.056 58.104 241.472 58.472 241.952 58.92C242.464 59.336 242.912 59.752 243.296 60.168C243.168 60.68 242.768 60.936 242.096 60.936H234.08V59.544ZM230.384 64.488H266.096V65.88H230.384V64.488ZM263.888 64.488H263.36L265.904 61.992L270.368 66.264C270.176 66.424 269.936 66.536 269.648 66.6C269.392 66.664 269.024 66.712 268.544 66.744C268.032 67.096 267.408 67.512 266.672 67.992C265.936 68.472 265.184 68.936 264.416 69.384C263.68 69.8 263.008 70.168 262.4 70.488L261.872 70.152C262.096 69.672 262.336 69.096 262.592 68.424C262.848 67.72 263.088 67.016 263.312 66.312C263.568 65.608 263.76 65 263.888 64.488ZM244.4 48.936C246.288 49.128 247.808 49.48 248.96 49.992C250.112 50.472 250.928 51.016 251.408 51.624C251.92 52.232 252.176 52.808 252.176 53.352C252.176 53.864 251.968 54.248 251.552 54.504C251.168 54.76 250.688 54.776 250.112 54.552C249.728 53.976 249.184 53.368 248.48 52.728C247.776 52.088 247.024 51.48 246.224 50.904C245.424 50.296 244.672 49.816 243.968 49.464L244.4 48.936ZM244.544 57C246.56 57.256 248.16 57.688 249.344 58.296C250.528 58.904 251.376 59.56 251.888 60.264C252.4 60.936 252.64 61.576 252.608 62.184C252.576 62.76 252.352 63.192 251.936 63.48C251.52 63.736 250.976 63.72 250.304 63.432C249.984 62.728 249.472 62.008 248.768 61.272C248.096 60.504 247.344 59.8 246.512 59.16C245.68 58.488 244.88 57.928 244.112 57.48L244.544 57ZM240.128 46.392L243.968 49.368C243.712 49.688 243.232 49.72 242.528 49.464C241.568 49.752 240.304 50.072 238.736 50.424C237.2 50.744 235.68 50.968 234.176 51.096L233.888 50.568C234.624 50.216 235.376 49.784 236.144 49.272C236.944 48.76 237.696 48.248 238.4 47.736C239.136 47.192 239.712 46.744 240.128 46.392ZM254.288 54.456H262.496V55.848H254.72L254.288 54.456ZM254.144 59.544H262.256V60.936H254.576L254.144 59.544ZM253.856 49.416H262.64V50.76H254.288L253.856 49.416ZM232.112 48.36L237.92 49.656C237.792 50.104 237.248 50.424 236.288 50.616L236.816 65.16H232.688L232.112 48.36ZM259.76 49.416H259.328L261.2 47.208L265.472 50.616C265.312 50.808 265.104 50.952 264.848 51.048C264.624 51.112 264.288 51.176 263.84 51.24L263.072 65.208H258.848L259.76 49.416ZM226.64 78.216H261.68L264.368 74.664C264.368 74.664 264.528 74.792 264.848 75.048C265.2 75.304 265.632 75.656 266.144 76.104C266.656 76.52 267.184 76.968 267.728 77.448C268.304 77.928 268.816 78.392 269.264 78.84C269.136 79.352 268.704 79.608 267.968 79.608H227.024L226.64 78.216ZM245.84 74.52L251.936 75.096C251.904 75.416 251.76 75.672 251.504 75.864C251.248 76.056 250.864 76.184 250.352 76.248V85.272C250.352 86.392 250.208 87.352 249.92 88.152C249.632 88.952 249.04 89.592 248.144 90.072C247.248 90.584 245.856 90.92 243.968 91.08C243.904 90.344 243.792 89.704 243.632 89.16C243.472 88.648 243.2 88.2 242.816 87.816C242.432 87.464 241.904 87.16 241.232 86.904C240.56 86.648 239.632 86.424 238.448 86.232V85.56C238.448 85.56 238.72 85.576 239.264 85.608C239.84 85.64 240.496 85.688 241.232 85.752C242 85.784 242.72 85.816 243.392 85.848C244.096 85.88 244.576 85.896 244.832 85.896C245.216 85.896 245.472 85.832 245.6 85.704C245.76 85.576 245.84 85.352 245.84 85.032V74.52ZM255.2 70.104H254.672L257.312 67.56L261.824 71.592C261.632 71.784 261.392 71.912 261.104 71.976C260.816 72.04 260.416 72.088 259.904 72.12C258.944 72.536 257.84 72.984 256.592 73.464C255.344 73.944 254.048 74.408 252.704 74.856C251.392 75.272 250.112 75.624 248.864 75.912H248.096C248.96 75.4 249.824 74.792 250.688 74.088C251.584 73.384 252.432 72.68 253.232 71.976C254.064 71.24 254.72 70.616 255.2 70.104ZM235.376 70.104H257.888V71.496H235.808L235.376 70.104ZM230.096 61.848L230.768 61.8C231.376 63.336 231.728 64.76 231.824 66.072C231.92 67.384 231.76 68.52 231.344 69.48C230.928 70.44 230.24 71.144 229.28 71.592C228.48 71.976 227.76 72.072 227.12 71.88C226.512 71.656 226.064 71.272 225.776 70.728C225.52 70.184 225.504 69.592 225.728 68.952C225.952 68.28 226.512 67.72 227.408 67.272C228.048 66.92 228.656 66.28 229.232 65.352C229.84 64.424 230.128 63.256 230.096 61.848ZM249.872 46.824L253.904 48.84C253.68 49.288 253.152 49.4 252.32 49.176C251.712 49.944 250.928 50.728 249.968 51.528C249.008 52.296 247.952 53.032 246.8 53.736C245.648 54.408 244.496 54.984 243.344 55.464L242.864 54.744C244.272 53.72 245.616 52.488 246.896 51.048C248.176 49.576 249.168 48.168 249.872 46.824ZM250.592 55.128L254.672 57.096C254.448 57.544 253.92 57.656 253.088 57.432C252.416 58.328 251.536 59.208 250.448 60.072C249.36 60.904 248.176 61.672 246.896 62.376C245.616 63.08 244.32 63.656 243.008 64.104L242.576 63.384C244.208 62.392 245.76 61.144 247.232 59.64C248.704 58.104 249.824 56.6 250.592 55.128ZM307.664 47.4C307.6 47.752 307.44 48.04 307.184 48.264C306.96 48.488 306.528 48.648 305.888 48.744V87.816H301.184V46.776L307.664 47.4ZM313.808 83.256C313.808 83.256 313.968 83.4 314.288 83.688C314.608 83.944 315.024 84.296 315.536 84.744C316.08 85.192 316.624 85.672 317.168 86.184C317.744 86.696 318.272 87.176 318.752 87.624C318.624 88.136 318.176 88.392 317.408 88.392H289.088L288.704 87H311.024L313.808 83.256ZM312.848 59.784C312.848 59.784 313.008 59.928 313.328 60.216C313.648 60.472 314.048 60.808 314.528 61.224C315.04 61.64 315.568 62.088 316.112 62.568C316.656 63.048 317.136 63.512 317.552 63.96C317.456 64.472 317.024 64.728 316.256 64.728H292.016L291.632 63.336H310.208L312.848 59.784ZM279.152 46.392C281.104 46.904 282.64 47.512 283.76 48.216C284.88 48.92 285.664 49.656 286.112 50.424C286.592 51.192 286.8 51.912 286.736 52.584C286.672 53.256 286.432 53.816 286.016 54.264C285.632 54.68 285.12 54.904 284.48 54.936C283.84 54.968 283.184 54.712 282.512 54.168C282.384 53.304 282.112 52.424 281.696 51.528C281.28 50.632 280.8 49.768 280.256 48.936C279.744 48.072 279.232 47.336 278.72 46.728L279.152 46.392ZM285.536 89.448C285.536 89.544 285.376 89.72 285.056 89.976C284.768 90.232 284.352 90.456 283.808 90.648C283.264 90.84 282.624 90.936 281.888 90.936H281.072V70.056L285.536 66.312V89.448ZM285.248 67.8C287.232 68.28 288.816 68.888 290 69.624C291.216 70.36 292.096 71.112 292.64 71.88C293.184 72.648 293.472 73.384 293.504 74.088C293.536 74.76 293.376 75.32 293.024 75.768C292.672 76.216 292.208 76.472 291.632 76.536C291.056 76.6 290.416 76.392 289.712 75.912C289.488 75.048 289.104 74.152 288.56 73.224C288.016 72.264 287.408 71.336 286.736 70.44C286.064 69.544 285.408 68.776 284.768 68.136L285.248 67.8ZM286.208 56.712L288.848 54.168L293.264 58.44C293.04 58.632 292.768 58.76 292.448 58.824C292.128 58.888 291.68 58.952 291.104 59.016C290.016 61.224 288.56 63.496 286.736 65.832C284.944 68.136 282.912 70.312 280.64 72.36C278.368 74.408 276 76.168 273.536 77.64L273.008 77.112C274.512 75.768 275.968 74.28 277.376 72.648C278.816 70.984 280.144 69.24 281.36 67.416C282.608 65.56 283.696 63.72 284.624 61.896C285.552 60.072 286.272 58.344 286.784 56.712H286.208ZM289.424 56.712V58.104H274.4L273.968 56.712H289.424Z" fill="#322A22"/>
</svg>
