<svg width="150" height="150" viewBox="0 0 150 150" fill="none" xmlns="http://www.w3.org/2000/svg">
<g clip-path="url(#clip0_8_55)">
<rect width="150" height="150" rx="16" fill="#322A22"/>
<path d="M68.27 98.0894C66.5969 99.7624 65.1521 100.067 63.9354 99.0019C62.5665 97.9373 62.7947 96.4924 64.6198 94.6673C69.0304 90.2567 72.1483 86.1502 73.9734 82.3479C75.7985 78.5456 76.711 74.5913 76.711 70.4848C76.711 68.0513 76.1027 66.1502 74.8859 64.7814C73.6692 63.5646 72.3004 62.424 70.7795 61.3593C69.2585 60.2947 67.8897 59.0779 66.673 57.7091C65.4563 56.1882 64.8479 54.0589 64.8479 51.3213C64.8479 48.2795 65.8365 45.77 67.8137 43.7928C69.943 41.6635 72.6046 40.5989 75.7985 40.5989C79.6008 40.5989 82.5665 41.9677 84.6958 44.7053C86.9772 47.443 88.1179 51.1692 88.1179 55.884C88.1179 63.9449 86.2167 71.7015 82.4144 79.154C78.7643 86.7586 74.0494 93.0703 68.27 98.0894Z" fill="#B86F4A"/>
</g>
<defs>
<clipPath id="clip0_8_55">
<rect width="150" height="150" rx="16" fill="white"/>
</clipPath>
</defs>
</svg>
